<svg xmlns="http://www.w3.org/2000/svg" version="1.1" xmlns:xlink="http://www.w3.org/1999/xlink" xmlns:svgjs="http://svgjs.dev/svgjs" width="2000" height="2250" viewBox="0 0 2000 2250"><g transform="matrix(1,0,0,1,0,0)"><svg viewBox="0 0 320 360" data-background-color="#ffffff" preserveAspectRatio="xMidYMid meet" height="2250" width="2000" xmlns="http://www.w3.org/2000/svg" xmlns:xlink="http://www.w3.org/1999/xlink"><g id="tight-bounds" transform="matrix(1,0,0,1,0,0)"><svg viewBox="0 0 320 360" height="360" width="320"><rect width="320" height="360" fill="url(#ab90106e-e0fd-4ade-9f56-dd2bc52e3ba6)" mask="url(&quot;#f168c519-abcd-4dc2-9185-c497c975f13d&quot;)" data-fill-palette-color="tertiary"></rect><rect width="320" height="360" fill="url(#b28805c6-a65a-431a-b595-df1f3fa4e73d)" mask="url(&quot;#eb69ab6a-5ea0-4cbe-99d3-5c65e0528cf3&quot;)" data-fill-palette-color="primary"></rect><g><svg></svg></g><g><svg viewBox="0 0 320 360" height="360" width="320"><g><path xmlns="http://www.w3.org/2000/svg" d="M160 340c88.258 0 160-71.742 160-160 0-88.258-71.742-160-160-160-88.258 0-160 71.742-160 160 0 88.258 71.742 160 160 160zM165.161 329.368v-10.323c72.671-2.684 131.2-61.213 133.884-133.884h10.323c-2.684 78.452-65.755 141.523-144.207 144.207zM165.161 30.632c78.452 2.684 141.523 65.755 144.207 144.207h-10.323c-2.684-72.671-61.213-131.2-133.884-133.884zM289.032 180c0 71.123-57.91 129.032-129.032 129.032-71.123 0-129.032-57.91-129.032-129.032 0-71.123 57.91-129.032 129.032-129.032 71.123 0 129.032 57.91 129.032 129.032zM154.839 30.632v10.323c-72.671 2.684-131.2 61.213-133.884 133.884h-10.323c2.684-78.452 65.755-141.523 144.207-144.207zM20.955 185.161c2.684 72.671 61.213 131.2 133.884 133.884v10.323c-78.452-2.684-141.523-65.755-144.207-144.207z" fill="url(#ab90106e-e0fd-4ade-9f56-dd2bc52e3ba6)" fill-rule="nonzero" stroke="none" stroke-width="1" stroke-linecap="butt" stroke-linejoin="miter" stroke-miterlimit="10" stroke-dasharray="" stroke-dashoffset="0" font-family="none" font-weight="none" font-size="none" text-anchor="none" style="mix-blend-mode: normal" data-fill-palette-color="tertiary"></path></g><g transform="matrix(1,0,0,1,64,106.11898016997168)"><svg viewBox="0 0 192 147.76203966005664" height="147.76203966005664" width="192"><g><svg viewBox="0 0 192 147.76203966005664" height="147.76203966005664" width="192"><g><svg viewBox="0 0 192 147.76203966005664" height="147.76203966005664" width="192"><g id="textblocktransform"><svg viewBox="0 0 192 147.76203966005664" height="147.76203966005664" width="192" id="textblock"><g><svg viewBox="0 0 192 147.76203966005664" height="147.76203966005664" width="192"><g transform="matrix(1,0,0,1,0,0)"><svg width="192" viewBox="0.9000000357627869 -35.70000076293945 52.94999694824219 40.75" height="147.76203966005664" data-palette-color="url(#b28805c6-a65a-431a-b595-df1f3fa4e73d)"></svg></g></svg></g></svg></g></svg></g></svg></g></svg></g></svg></g><defs><linearGradient x1="0.054" x2="0.941" y1="0.5" y2="0.5" id="b28805c6-a65a-431a-b595-df1f3fa4e73d"><stop stop-color="#9c7945" offset="0"></stop><stop stop-color="#faf3aa" offset="0.498"></stop><stop stop-color="#9c7945" offset="1"></stop></linearGradient><linearGradient x1="0.054" x2="0.941" y1="0.5" y2="0.5" id="ab90106e-e0fd-4ade-9f56-dd2bc52e3ba6"><stop stop-color="#9c7945" offset="0"></stop><stop stop-color="#faf3aa" offset="0.498"></stop><stop stop-color="#9c7945" offset="1"></stop></linearGradient></defs><mask id="eb69ab6a-5ea0-4cbe-99d3-5c65e0528cf3"><g id="SvgjsG1590"><svg viewBox="0 0 320 360" height="360" width="320"><g><svg></svg></g><g><svg viewBox="0 0 320 360" height="360" width="320"><g></g><g transform="matrix(1,0,0,1,64,106.11898016997168)"><svg viewBox="0 0 192 147.76203966005664" height="147.76203966005664" width="192"><g><svg viewBox="0 0 192 147.76203966005664" height="147.76203966005664" width="192"><g><svg viewBox="0 0 192 147.76203966005664" height="147.76203966005664" width="192"><g id="SvgjsG1589"><svg viewBox="0 0 192 147.76203966005664" height="147.76203966005664" width="192" id="SvgjsSvg1588"><g><svg viewBox="0 0 192 147.76203966005664" height="147.76203966005664" width="192"><g transform="matrix(1,0,0,1,0,0)"><svg width="192" viewBox="0.9000000357627869 -35.70000076293945 52.94999694824219 40.75" height="147.76203966005664" data-palette-color="url(#b28805c6-a65a-431a-b595-df1f3fa4e73d)"><path d="M1.4-3.35L1.4-3.35Q1.4-8.75 4.6-14.05L4.6-14.05Q0.9-16.4 0.9-21L0.9-21Q0.9-26.55 5.8-30.85L5.8-30.85Q11.3-35.7 20-35.7L20-35.7Q24-35.7 28.6-34.55L28.6-34.55Q29.65-34.3 37.55-30.68 45.45-27.05 48.9-27.05L48.9-27.05Q51.2-27.05 52.35-28.35L52.35-28.35Q52.95-29 52.95-29.75 52.95-30.5 52.3-31.1L52.3-31.1Q51.95-31.6 51.95-31.75 51.95-31.9 52.23-31.9 52.5-31.9 53.18-31.03 53.85-30.15 53.85-28.98 53.85-27.8 52.28-26.73 50.7-25.65 48.3-25.65L48.3-25.65Q44.55-25.65 36.65-29.28 28.75-32.9 26.73-33.3 24.7-33.7 22.1-33.7L22.1-33.7Q11.75-33.7 5.8-27L5.8-27Q5.1-26.25 4.15-23.98 3.2-21.7 3.2-19.6L3.2-19.6Q3.2-16.7 5.25-15.1L5.25-15.1Q7.85-18.9 11.4-21.15 14.95-23.4 18.6-23.4L18.6-23.4Q23.1-23.4 23.1-19.9L23.1-19.9Q23.1-15.7 18.18-10.78 13.25-5.85 9.05-5.85L9.05-5.85Q6.35-5.85 6.35-8.15L6.35-8.15Q6.35-8.95 6.78-9.55 7.2-10.15 7.8-10L7.8-10 7.7-8.85Q7.7-8.1 10-8.1L10-8.1Q13.4-8.1 17.18-11.6 20.95-15.1 21.75-18.45L21.75-18.45Q21.95-19.2 21.95-19.8L21.95-19.8Q21.95-22.05 19.07-22.05 16.2-22.05 13.13-19.85 10.05-17.65 7.35-14.05L7.35-14.05Q7.55-13.95 8.9-13.65L8.9-13.65 11.9-13.55Q14.1-13.45 14.1-13.05L14.1-13.05Q14.1-12.35 12-12.35L12-12.35Q11.85-12.35 11.7-12.35L11.7-12.35Q8.65-12.35 6.7-13.1L6.7-13.1Q2.85-7.2 2.85-2.25L2.85-2.25Q2.85 4.15 7.8 4.15L7.8 4.15Q13.4 4.15 19.45-3.65L19.45-3.65 29.25-18.25Q34.75-26.25 38.8-26.45L38.8-26.45 40.7-26Q41.6-25.5 41.6-24.5 41.6-23.5 41.1-23.5L41.1-23.5 39.5-23.75Q36.05-23.75 30.65-16.3L30.65-16.3 20.7-2.4Q14.3 5.05 8.45 5.05L8.45 5.05Q4.45 5.05 2.93 2.9 1.4 0.75 1.4-3.35Z" opacity="1" transform="matrix(1,0,0,1,0,0)" fill="white" class="undefined-text-0" id="SvgjsPath1587"></path></svg></g></svg></g></svg></g></svg></g></svg></g></svg></g></svg></g><defs><linearGradient x1="0.054" x2="0.941" y1="0.5" y2="0.5" id="SvgjsLinearGradient1586"><stop stop-color="#9c7945" offset="0"></stop><stop stop-color="#faf3aa" offset="0.498"></stop><stop stop-color="#9c7945" offset="1"></stop></linearGradient><mask></mask></defs></svg></g></mask><mask id="f168c519-abcd-4dc2-9185-c497c975f13d"><g id="SvgjsG1601"><svg viewBox="0 0 320 360" height="360" width="320"><g><svg></svg></g><g><svg viewBox="0 0 320 360" height="360" width="320"><g><path xmlns="http://www.w3.org/2000/svg" d="M160 340c88.258 0 160-71.742 160-160 0-88.258-71.742-160-160-160-88.258 0-160 71.742-160 160 0 88.258 71.742 160 160 160zM165.161 329.368v-10.323c72.671-2.684 131.2-61.213 133.884-133.884h10.323c-2.684 78.452-65.755 141.523-144.207 144.207zM165.161 30.632c78.452 2.684 141.523 65.755 144.207 144.207h-10.323c-2.684-72.671-61.213-131.2-133.884-133.884zM289.032 180c0 71.123-57.91 129.032-129.032 129.032-71.123 0-129.032-57.91-129.032-129.032 0-71.123 57.91-129.032 129.032-129.032 71.123 0 129.032 57.91 129.032 129.032zM154.839 30.632v10.323c-72.671 2.684-131.2 61.213-133.884 133.884h-10.323c2.684-78.452 65.755-141.523 144.207-144.207zM20.955 185.161c2.684 72.671 61.213 131.2 133.884 133.884v10.323c-78.452-2.684-141.523-65.755-144.207-144.207z" fill="white" fill-rule="nonzero" stroke="none" stroke-width="1" stroke-linecap="butt" stroke-linejoin="miter" stroke-miterlimit="10" stroke-dasharray="" stroke-dashoffset="0" font-family="none" font-weight="none" font-size="none" text-anchor="none" style="mix-blend-mode: normal"></path></g><g transform="matrix(1,0,0,1,64,106.11898016997168)"><svg viewBox="0 0 192 147.76203966005664" height="147.76203966005664" width="192"><g><svg viewBox="0 0 192 147.76203966005664" height="147.76203966005664" width="192"><g><svg viewBox="0 0 192 147.76203966005664" height="147.76203966005664" width="192"><g id="SvgjsG1600"><svg viewBox="0 0 192 147.76203966005664" height="147.76203966005664" width="192" id="SvgjsSvg1599"><g><svg viewBox="0 0 192 147.76203966005664" height="147.76203966005664" width="192"><g transform="matrix(1,0,0,1,0,0)"><svg width="192" viewBox="0.9000000357627869 -35.70000076293945 52.94999694824219 40.75" height="147.76203966005664" data-palette-color="url(#b28805c6-a65a-431a-b595-df1f3fa4e73d)"></svg></g></svg></g></svg></g></svg></g></svg></g></svg></g></svg></g><defs><linearGradient x1="0.054" x2="0.941" y1="0.5" y2="0.5" id="SvgjsLinearGradient1598"><stop stop-color="#9c7945" offset="0"></stop><stop stop-color="#faf3aa" offset="0.498"></stop><stop stop-color="#9c7945" offset="1"></stop></linearGradient><linearGradient x1="0.054" x2="0.941" y1="0.5" y2="0.5" id="SvgjsLinearGradient1597"><stop stop-color="#9c7945" offset="0"></stop><stop stop-color="#faf3aa" offset="0.498"></stop><stop stop-color="#9c7945" offset="1"></stop></linearGradient><mask></mask></defs><mask id="SvgjsMask1596"><g id="SvgjsG1595"><svg viewBox="0 0 320 360" height="360" width="320"><g><svg></svg></g><g><svg viewBox="0 0 320 360" height="360" width="320"><g></g><g transform="matrix(1,0,0,1,64,106.11898016997168)"><svg viewBox="0 0 192 147.76203966005664" height="147.76203966005664" width="192"><g><svg viewBox="0 0 192 147.76203966005664" height="147.76203966005664" width="192"><g><svg viewBox="0 0 192 147.76203966005664" height="147.76203966005664" width="192"><g id="SvgjsG1594"><svg viewBox="0 0 192 147.76203966005664" height="147.76203966005664" width="192" id="SvgjsSvg1593"><g><svg viewBox="0 0 192 147.76203966005664" height="147.76203966005664" width="192"><g transform="matrix(1,0,0,1,0,0)"><svg width="192" viewBox="0.9000000357627869 -35.70000076293945 52.94999694824219 40.75" height="147.76203966005664" data-palette-color="url(#b28805c6-a65a-431a-b595-df1f3fa4e73d)"></svg></g></svg></g></svg></g></svg></g></svg></g></svg></g></svg></g><defs><linearGradient x1="0.054" x2="0.941" y1="0.5" y2="0.5" id="SvgjsLinearGradient1591"><stop stop-color="#9c7945" offset="0"></stop><stop stop-color="#faf3aa" offset="0.498"></stop><stop stop-color="#9c7945" offset="1"></stop></linearGradient><mask></mask></defs></svg></g></mask></svg></g></mask></svg><rect width="320" height="360" fill="none" stroke="none" visibility="hidden"></rect></g></svg></g></svg>
